<svg width="24" height="16" viewBox="0 0 24 16" fill="none" xmlns="http://www.w3.org/2000/svg">
<g clip-path="url(#clip0_140_1428)">
<path d="M1.5 0.499999C1.5 0.776143 1.27616 0.999999 1 0.999999H0.5C0.22384 0.999999 -2.23517e-08 0.776143 -2.23517e-08 0.499999C-2.23517e-08 0.223858 0.22384 0 0.5 0H1C1.27616 0 1.5 0.223858 1.5 0.499999Z" fill="#3A077B"/>
<path d="M16 16H13.5711L14.2782 15.2929C14.4657 15.1054 14.7201 15 14.9853 15H16C19.866 15 23 11.866 23 8C23 4.134 19.866 1 16 1H8C4.134 1 1 4.134 1 8C1 11.866 4.134 15 8 15H10.9926C11.3905 15 11.772 14.842 12.0533 14.5607L12.8817 13.7322C13.3506 13.2634 13.9865 13 14.6495 13H16C18.7614 13 21 10.7614 21 8C21 5.23856 18.7614 3 16 3H8C5.23856 3 3 5.23856 3 8C3 10.7614 5.23856 13 8 13H9.92156C10.3194 13 10.7009 12.842 10.9822 12.5607L11.8107 11.7322C12.2795 11.2634 12.9154 11 13.5784 11H16C17.6568 11 19 9.65684 19 8C19 6.34316 17.6568 5 16 5H8C6.34316 5 5 6.34316 5 8C5 9.63664 6.3106 10.9672 7.93952 10.9994L7.93984 11H8.67156C9.0694 11 9.45092 10.842 9.73224 10.5607L10.5607 9.73224C10.9454 9.34752 11.4425 9.10116 11.9749 9.02512L12 9H16C16.5523 9 17 8.55228 17 8C17 7.44772 16.5523 7 16 7H8C7.44772 7 7 7.44772 7 8C7 8.55228 7.44772 9 8 9H10L9.29288 9.70712C9.10536 9.89464 8.851 10 8.5858 10H8C6.89544 10 6 9.10456 6 8C6 6.89544 6.89544 6 8 6H16C17.1046 6 18 6.89544 18 8C18 9.10456 17.1046 10 16 10H12.3284C11.9306 10 11.5491 10.158 11.2678 10.4393L10.4393 11.2678C9.97048 11.7366 9.3346 12 8.67156 12H7.75V11.9923C5.65732 11.8633 4 10.1252 4 8C4 5.79088 5.79088 4 8 4H16C18.2091 4 20 5.79088 20 8C20 10.2092 18.2091 12 16 12H13.5784C13.1806 12 12.7991 12.158 12.5178 12.4393L11.6893 13.2678C11.2205 13.7366 10.5846 14 9.92156 14H8C4.68628 14 2 11.3137 2 8C2 4.68628 4.68628 2 8 2H16C19.3137 2 22 4.68628 22 8C22 11.3137 19.3137 14 16 14H14.6495C14.2517 14 13.8702 14.158 13.5888 14.4393L12.7604 15.2678C12.2916 15.7366 11.6557 16 10.9926 16H8C3.58172 16 -3.57628e-07 12.4183 -3.57628e-07 8C-3.57628e-07 3.58172 3.58172 -3.86258e-07 8 0L16 1.65306e-06C20.4183 2.03932e-06 24 3.58172 24 8C24 12.4183 20.4183 16 16 16Z" fill="#3A077B"/>
</g>
<defs>
<clipPath id="clip0_140_1428">
<rect width="24" height="16" fill="white" transform="matrix(-1 0 0 1 24 0)"/>
</clipPath>
</defs>
</svg>
