<svg width="122" height="20" viewBox="0 0 122 20" fill="none" xmlns="http://www.w3.org/2000/svg">
<g clip-path="url(#clip0_87_288)">
<path d="M28.125 0.624998C28.125 0.970178 28.4048 1.25 28.75 1.25H29.375C29.7202 1.25 30 0.970178 30 0.624998C30 0.279822 29.7202 0 29.375 0H28.75C28.4048 0 28.125 0.279822 28.125 0.624998Z" fill="#3A077B"/>
<path d="M10 20H13.0361L12.1523 19.1161C11.9179 18.8817 11.5999 18.75 11.2684 18.75H10C5.1675 18.75 1.25 14.8325 1.25 10C1.25 5.1675 5.1675 1.25 10 1.25H20C24.8325 1.25 28.75 5.1675 28.75 10C28.75 14.8325 24.8325 18.75 20 18.75H16.2592C15.7619 18.75 15.285 18.5524 14.9333 18.2008L13.8979 17.1653C13.3118 16.5793 12.5169 16.25 11.6881 16.25H10C6.5482 16.25 3.75 13.4518 3.75 10C3.75 6.5482 6.5482 3.75 10 3.75H20C23.4518 3.75 26.25 6.5482 26.25 10C26.25 13.4518 23.4518 16.25 20 16.25H17.598C17.1007 16.25 16.6238 16.0524 16.2722 15.7008L15.2367 14.6653C14.6506 14.0793 13.8557 13.75 13.0269 13.75H10C7.92895 13.75 6.25 12.071 6.25 10C6.25 7.92895 7.92895 6.25 10 6.25H20C22.071 6.25 23.75 7.92895 23.75 10C23.75 12.0458 22.1117 13.709 20.0756 13.7493L20.0752 13.75H19.1605C18.6632 13.75 18.1863 13.5524 17.8347 13.2008L16.7992 12.1653C16.3183 11.6844 15.6968 11.3764 15.0314 11.2814L15 11.25H10C9.30965 11.25 8.75 10.6903 8.75 10C8.75 9.30965 9.30965 8.75 10 8.75H20C20.6903 8.75 21.25 9.30965 21.25 10C21.25 10.6903 20.6903 11.25 20 11.25H17.5L18.3839 12.1339C18.6183 12.3683 18.9362 12.5 19.2677 12.5H20C21.3807 12.5 22.5 11.3807 22.5 10C22.5 8.6193 21.3807 7.5 20 7.5H10C8.6193 7.5 7.5 8.6193 7.5 10C7.5 11.3807 8.6193 12.5 10 12.5H14.5894C15.0867 12.5 15.5637 12.6976 15.9153 13.0492L16.9508 14.0847C17.5369 14.6707 18.3317 15 19.1605 15H20.3125V14.9904C22.9283 14.8291 25 12.6565 25 10C25 7.2386 22.7614 5 20 5H10C7.2386 5 5 7.2386 5 10C5 12.7615 7.2386 15 10 15H13.0269C13.5242 15 14.0012 15.1976 14.3528 15.5492L15.3883 16.5847C15.9744 17.1707 16.7692 17.5 17.598 17.5H20C24.1421 17.5 27.5 14.1421 27.5 10C27.5 5.85785 24.1421 2.5 20 2.5H10C5.85785 2.5 2.5 5.85785 2.5 10C2.5 14.1421 5.85785 17.5 10 17.5H11.6881C12.1854 17.5 12.6623 17.6976 13.014 18.0492L14.0495 19.0847C14.6356 19.6707 15.4304 20 16.2592 20H20C25.5229 20 30 15.5229 30 10C30 4.47715 25.5229 -4.82822e-07 20 0L10 2.06632e-06C4.47715 2.54914e-06 -4.82822e-07 4.47716 0 10C4.82823e-07 15.5229 4.47716 20 10 20Z" fill="#3A077B"/>
</g>
<path d="M40.0625 15.121V3.06452H36V1.00806H46.3226V3.06452H42.2601V15.121H40.0625Z" fill="#3A077B"/>
<path d="M48.9108 15.3226C48.3328 15.3226 47.8187 15.2016 47.3684 14.9597C46.9182 14.711 46.562 14.3683 46.2999 13.9315C46.0445 13.4946 45.9168 12.9805 45.9168 12.3891C45.9168 11.8246 46.0445 11.3441 46.2999 10.9476C46.5553 10.5444 46.8947 10.2083 47.318 9.93952C47.7414 9.6707 48.2051 9.459 48.7092 9.30443C49.2199 9.14314 49.7374 9.02554 50.2616 8.95161C50.7858 8.87769 51.273 8.83737 51.7233 8.83065C51.7166 8.04436 51.5486 7.51344 51.2193 7.2379C50.89 6.95565 50.3893 6.81452 49.7172 6.81452C49.314 6.81452 48.9007 6.875 48.4773 6.99597C48.0539 7.11021 47.5768 7.32863 47.0459 7.65121L46.8039 5.9375C47.2878 5.6418 47.8288 5.40659 48.4269 5.23185C49.025 5.05712 49.6433 4.96976 50.2818 4.96976C51.0815 4.96976 51.7434 5.11089 52.2676 5.39315C52.7918 5.6754 53.185 6.14247 53.4471 6.79435C53.7092 7.44624 53.8402 8.31989 53.8402 9.41532V11.7339C53.8402 12.2177 53.8604 12.5974 53.9007 12.873C53.9477 13.1418 54.0452 13.3333 54.193 13.4476C54.3409 13.5618 54.566 13.619 54.8684 13.619H55.1104L54.8483 15.3226H54.3846C53.8873 15.3226 53.484 15.2688 53.1749 15.1613C52.8725 15.0538 52.6272 14.9026 52.439 14.7077C52.2508 14.506 52.0929 14.2675 51.9652 13.9919C51.609 14.3952 51.1655 14.7177 50.6346 14.9597C50.1104 15.2016 49.5358 15.3226 48.9108 15.3226ZM49.5559 13.6694C49.9323 13.6694 50.3187 13.5753 50.7152 13.3871C51.1184 13.1989 51.4578 12.9368 51.7334 12.6008V10.2621C50.9807 10.2957 50.3322 10.3864 49.7878 10.5343C49.2502 10.6754 48.8335 10.8905 48.5378 11.1794C48.2488 11.4684 48.1043 11.838 48.1043 12.2883C48.1043 12.7722 48.232 13.125 48.4874 13.3468C48.7428 13.5618 49.099 13.6694 49.5559 13.6694Z" fill="#3A077B"/>
<path d="M59.3202 15.3226C58.5339 15.3226 57.8618 15.2352 57.304 15.0605C56.7462 14.8858 56.2859 14.7009 55.923 14.506L56.1447 12.5907C56.4875 12.8259 56.921 13.0544 57.4452 13.2762C57.9761 13.4913 58.5742 13.5988 59.2395 13.5988C59.8175 13.5988 60.2577 13.5047 60.5601 13.3165C60.8692 13.1216 61.0238 12.836 61.0238 12.4597C61.0238 12.1505 60.9331 11.9019 60.7516 11.7137C60.5702 11.5188 60.3316 11.3575 60.0359 11.2298C59.7402 11.1022 59.4277 10.9845 59.0984 10.877C58.5809 10.709 58.0903 10.5141 57.6266 10.2923C57.1696 10.0706 56.7966 9.77487 56.5077 9.40524C56.2254 9.0289 56.0843 8.53159 56.0843 7.91331C56.0843 7.37567 56.2187 6.88172 56.4875 6.43145C56.7563 5.98118 57.1629 5.625 57.7072 5.3629C58.2583 5.09409 58.9572 4.95968 59.804 4.95968C60.4492 4.95968 60.9969 5.03024 61.4472 5.17137C61.9042 5.30578 62.3107 5.46707 62.6669 5.65524L62.4452 7.52016C62.089 7.24462 61.7025 7.01613 61.2859 6.83468C60.8759 6.64651 60.3954 6.55242 59.8443 6.55242C59.3336 6.55242 58.927 6.65323 58.6246 6.85484C58.3222 7.04973 58.171 7.34879 58.171 7.75202C58.171 8.18212 58.349 8.49462 58.7052 8.68952C59.0614 8.88441 59.6159 9.10954 60.3685 9.36492C60.7113 9.47917 61.0473 9.61693 61.3766 9.77822C61.7059 9.93279 62.005 10.121 62.2738 10.3427C62.5493 10.5645 62.7677 10.8401 62.929 11.1694C63.0903 11.4987 63.171 11.8918 63.171 12.3488C63.171 12.873 63.0433 13.3602 62.7879 13.8105C62.5392 14.2608 62.1327 14.627 61.5681 14.9093C61.0103 15.1848 60.261 15.3226 59.3202 15.3226Z" fill="#3A077B"/>
<path d="M64.8941 15.121V0H67.001V9.47581L70.4183 5.16129H72.8981L69.0776 9.85887L72.9889 15.121H70.509L67.001 10.3327V15.121H64.8941Z" fill="#3A077B"/>
<path d="M78.712 15.4032C78.134 15.4032 77.546 15.3528 76.9479 15.252C76.3565 15.1579 75.8088 15.037 75.3047 14.8891C74.8007 14.7413 74.3874 14.5934 74.0648 14.4456L74.3471 12.1069C74.757 12.3085 75.2174 12.5034 75.7281 12.6915C76.2456 12.8797 76.79 13.0376 77.3612 13.1653C77.9324 13.293 78.5104 13.3569 79.0951 13.3569C79.9082 13.3569 80.5568 13.2056 81.0406 12.9032C81.5245 12.5941 81.7664 12.1169 81.7664 11.4718C81.7664 10.9879 81.6387 10.5948 81.3834 10.2923C81.128 9.9832 80.7416 9.71774 80.2241 9.49597C79.7133 9.26747 79.0615 9.0289 78.2685 8.78024C77.509 8.53831 76.8135 8.25605 76.1818 7.93347C75.5568 7.61089 75.0561 7.19086 74.6797 6.67339C74.3034 6.14919 74.1152 5.46707 74.1152 4.62702C74.1152 3.86761 74.3068 3.19556 74.6898 2.61089C75.0796 2.01949 75.6508 1.55914 76.4035 1.22984C77.1562 0.893818 78.087 0.725807 79.1959 0.725807C80.0964 0.725807 80.9331 0.826613 81.706 1.02823C82.4855 1.22312 83.1374 1.43481 83.6616 1.66331L83.4398 3.96169C82.6603 3.54503 81.921 3.24261 81.2221 3.05444C80.5299 2.86626 79.8175 2.77218 79.085 2.77218C78.292 2.77218 77.6502 2.91331 77.1596 3.19556C76.6757 3.47782 76.4338 3.92473 76.4338 4.53629C76.4338 4.97984 76.5514 5.33938 76.7866 5.61492C77.0218 5.88374 77.3679 6.11559 77.8249 6.31048C78.2819 6.50538 78.8397 6.70699 79.4983 6.91532C80.4996 7.21774 81.3498 7.56048 82.0487 7.94355C82.7476 8.32661 83.2785 8.79368 83.6414 9.34476C84.0111 9.89583 84.1959 10.578 84.1959 11.3911C84.1959 11.9153 84.1018 12.416 83.9136 12.8931C83.7322 13.3703 83.4297 13.8004 83.0064 14.1835C82.583 14.5598 82.0185 14.8589 81.3128 15.0806C80.6139 15.2957 79.7469 15.4032 78.712 15.4032Z" fill="#3A077B"/>
<path d="M85.8828 20V5.16129H87.5562L87.9493 7.16734L87.3445 6.84476C87.7746 6.27352 88.282 5.81989 88.8667 5.48387C89.4514 5.14113 90.1671 4.96976 91.0139 4.96976C91.948 4.96976 92.7444 5.20497 93.403 5.6754C94.0616 6.13911 94.5622 6.76411 94.905 7.5504C95.2477 8.32997 95.4191 9.19691 95.4191 10.1512C95.4191 11.0988 95.2511 11.9657 94.9151 12.752C94.5858 13.5316 94.0952 14.1566 93.4433 14.627C92.7914 15.0907 91.9816 15.3226 91.0139 15.3226C90.2276 15.3226 89.5454 15.1848 88.9675 14.9093C88.3962 14.627 87.9225 14.1969 87.5461 13.619L87.9897 13.2056V20H85.8828ZM90.651 13.5181C91.4708 13.5181 92.1093 13.2157 92.5663 12.6109C93.03 12.006 93.2618 11.1862 93.2618 10.1512C93.2618 9.10954 93.03 8.28629 92.5663 7.68145C92.1093 7.07661 91.4708 6.77419 90.651 6.77419C90.0932 6.77419 89.6059 6.90524 89.1893 7.16734C88.7793 7.42944 88.4567 7.8125 88.2215 8.31653C87.993 8.81384 87.8788 9.4254 87.8788 10.1512C87.8788 10.8905 87.993 11.5087 88.2215 12.006C88.4567 12.5034 88.7793 12.8797 89.1893 13.1351C89.6059 13.3905 90.0932 13.5181 90.651 13.5181Z" fill="#3A077B"/>
<path d="M99.4912 15.3226C98.9132 15.3226 98.3991 15.2016 97.9489 14.9597C97.4986 14.711 97.1424 14.3683 96.8803 13.9315C96.6249 13.4946 96.4972 12.9805 96.4972 12.3891C96.4972 11.8246 96.6249 11.3441 96.8803 10.9476C97.1357 10.5444 97.4751 10.2083 97.8985 9.93952C98.3218 9.6707 98.7856 9.459 99.2896 9.30443C99.8003 9.14314 100.318 9.02554 100.842 8.95161C101.366 8.87769 101.853 8.83737 102.304 8.83065C102.297 8.04436 102.129 7.51344 101.8 7.2379C101.47 6.95565 100.97 6.81452 100.298 6.81452C99.8944 6.81452 99.4811 6.875 99.0577 6.99597C98.6343 7.11021 98.1572 7.32863 97.6263 7.65121L97.3843 5.9375C97.8682 5.6418 98.4092 5.40659 99.0073 5.23185C99.6055 5.05712 100.224 4.96976 100.862 4.96976C101.662 4.96976 102.324 5.11089 102.848 5.39315C103.372 5.6754 103.765 6.14247 104.027 6.79435C104.29 7.44624 104.421 8.31989 104.421 9.41532V11.7339C104.421 12.2177 104.441 12.5974 104.481 12.873C104.528 13.1418 104.626 13.3333 104.773 13.4476C104.921 13.5618 105.146 13.619 105.449 13.619H105.691L105.429 15.3226H104.965C104.468 15.3226 104.064 15.2688 103.755 15.1613C103.453 15.0538 103.208 14.9026 103.019 14.7077C102.831 14.506 102.673 14.2675 102.546 13.9919C102.189 14.3952 101.746 14.7177 101.215 14.9597C100.691 15.2016 100.116 15.3226 99.4912 15.3226ZM100.136 13.6694C100.513 13.6694 100.899 13.5753 101.296 13.3871C101.699 13.1989 102.038 12.9368 102.314 12.6008V10.2621C101.561 10.2957 100.913 10.3864 100.368 10.5343C99.8306 10.6754 99.4139 10.8905 99.1182 11.1794C98.8292 11.4684 98.6847 11.838 98.6847 12.2883C98.6847 12.7722 98.8124 13.125 99.0678 13.3468C99.3232 13.5618 99.6794 13.6694 100.136 13.6694Z" fill="#3A077B"/>
<path d="M107.068 15.121V5.16129H108.923L109.074 6.55242C109.477 6.06855 109.907 5.68212 110.364 5.39315C110.828 5.10417 111.329 4.95968 111.866 4.95968C112.028 4.95968 112.179 4.97648 112.32 5.01008L112.138 7.19758C112.024 7.1707 111.907 7.15054 111.786 7.1371C111.671 7.12366 111.55 7.11694 111.423 7.11694C110.939 7.11694 110.495 7.22782 110.092 7.4496C109.696 7.66465 109.413 7.90995 109.245 8.18548V15.121H107.068Z" fill="#3A077B"/>
<path d="M113.545 15.121V0H115.652V9.47581L119.069 5.16129H121.549L117.729 9.85887L121.64 15.121H119.16L115.652 10.3327V15.121H113.545Z" fill="#3A077B"/>
<defs>
<clipPath id="clip0_87_288">
<rect width="30" height="20" fill="white"/>
</clipPath>
</defs>
</svg>
